<svg width="56" height="56" viewBox="0 0 56 56" fill="none" xmlns="http://www.w3.org/2000/svg">
<rect width="56" height="56" fill="#1C95FF"/>
<path d="M12.675 34.955C11.595 35.015 11.005 35.045 10.905 35.045C10.665 35.045 10.425 34.9 10.185 34.61C9.945 34.31 9.825 34 9.825 33.68C9.825 33.19 11.25 32.945 14.1 32.945C15.56 32.945 16.635 33.095 17.325 33.395C18.015 33.695 18.36 34.06 18.36 34.49C18.36 34.62 18.285 34.745 18.135 34.865C17.985 34.975 17.795 35.03 17.565 35.03C17.335 35.03 16.915 35.015 16.305 34.985C15.695 34.955 15.14 34.935 14.64 34.925C14.68 35.045 14.7 35.185 14.7 35.345C14.7 35.505 14.64 35.82 14.52 36.29C14.41 36.76 14.25 37.415 14.04 38.255C13.83 39.085 13.6 40.095 13.35 41.285C13.1 42.465 12.925 43.17 12.825 43.4C12.735 43.62 12.645 43.73 12.555 43.73C12.345 43.73 12.08 43.54 11.76 43.16C11.45 42.77 11.295 42.455 11.295 42.215C11.295 41.975 11.5 40.985 11.91 39.245C12.32 37.495 12.575 36.065 12.675 34.955ZM19.4092 32.51C19.4092 32.09 19.5742 31.88 19.9042 31.88C20.1742 31.88 20.4842 32.105 20.8342 32.555C21.1842 33.005 21.3592 33.39 21.3592 33.71C21.3592 34.03 21.2942 34.48 21.1642 35.06C21.0342 35.64 20.8992 36.17 20.7592 36.65C20.6292 37.13 20.4292 37.815 20.1592 38.705C19.8892 39.585 19.7042 40.2 19.6042 40.55C20.2542 39.23 20.9392 38.155 21.6592 37.325C22.3892 36.495 22.9992 36.08 23.4892 36.08C23.7992 36.08 24.1542 36.355 24.5542 36.905C24.9542 37.445 25.1542 37.935 25.1542 38.375C25.1542 38.805 25.0742 39.435 24.9142 40.265C24.7542 41.095 24.4742 41.895 24.0742 42.665C23.6742 43.435 23.2642 43.82 22.8442 43.82C22.5142 43.82 22.3492 43.585 22.3492 43.115C22.3492 42.775 22.4492 42.22 22.6492 41.45C22.9392 40.3 23.0842 39.6 23.0842 39.35C23.0842 39.1 23.0442 38.975 22.9642 38.975C22.3842 38.975 21.5342 39.94 20.4142 41.87C20.0342 42.53 19.7142 43.02 19.4542 43.34C19.2042 43.66 18.9642 43.82 18.7342 43.82C18.5042 43.82 18.2242 43.635 17.8942 43.265C17.5742 42.895 17.4142 42.61 17.4142 42.41C17.4142 42.2 17.4542 41.895 17.5342 41.495C17.6242 41.095 17.7542 40.525 17.9242 39.785C18.1042 39.045 18.3942 37.705 18.7942 35.765C19.2042 33.815 19.4092 32.73 19.4092 32.51ZM27.4563 34.205C27.4563 33.945 27.5713 33.68 27.8013 33.41C28.0413 33.13 28.2713 32.99 28.4913 32.99C28.7213 32.99 28.9913 33.26 29.3013 33.8C29.6113 34.34 29.7663 34.735 29.7663 34.985C29.7663 35.225 29.6863 35.41 29.5263 35.54C29.3663 35.67 29.2013 35.735 29.0313 35.735C28.7413 35.735 28.4063 35.545 28.0263 35.165C27.6463 34.785 27.4563 34.465 27.4563 34.205ZM27.6813 36.08C28.0313 36.08 28.3413 36.28 28.6113 36.68C28.8913 37.08 29.0313 37.465 29.0313 37.835C29.0313 38.025 28.8563 38.71 28.5063 39.89C28.1663 41.06 27.8263 42.17 27.4863 43.22C27.3663 43.61 27.1213 43.805 26.7513 43.805C26.5313 43.805 26.3363 43.725 26.1663 43.565C26.0063 43.395 25.9263 43.18 25.9263 42.92C25.9263 42.65 26.0513 41.99 26.3013 40.94C26.5613 39.88 26.7563 38.98 26.8863 38.24C27.0263 37.49 27.1513 36.945 27.2613 36.605C27.3813 36.255 27.5213 36.08 27.6813 36.08ZM35.4028 36.08C35.9228 36.08 36.3778 36.315 36.7678 36.785C37.1678 37.245 37.3678 37.74 37.3678 38.27C37.3678 39.12 37.2278 40.01 36.9478 40.94C36.6778 41.86 36.3778 42.57 36.0478 43.07C35.7278 43.57 35.3978 43.82 35.0578 43.82C34.7278 43.82 34.5628 43.585 34.5628 43.115C34.5628 42.755 34.7278 42.03 35.0578 40.94C35.3078 40.04 35.4328 39.395 35.4328 39.005C35.4328 38.615 35.3828 38.42 35.2828 38.42C35.1528 38.42 35.0228 38.485 34.8928 38.615C34.7728 38.745 34.6728 38.86 34.5928 38.96C34.5128 39.06 34.4178 39.19 34.3078 39.35C34.2078 39.5 34.1178 39.64 34.0378 39.77C33.9678 39.89 33.8728 40.05 33.7528 40.25C33.6428 40.44 33.5528 40.6 33.4828 40.73C33.4128 40.85 33.3228 41.01 33.2128 41.21C32.2828 42.95 31.5528 43.82 31.0228 43.82C30.8128 43.82 30.5478 43.64 30.2278 43.28C29.9078 42.91 29.7478 42.64 29.7478 42.47C29.7478 42.36 29.8178 42.125 29.9578 41.765C30.1078 41.395 30.2128 41.115 30.2728 40.925C30.3428 40.725 30.3978 40.515 30.4378 40.295C30.4878 40.075 30.5278 39.84 30.5578 39.59C30.5878 39.33 30.6078 39.13 30.6178 38.99C30.6378 38.85 30.6578 38.63 30.6778 38.33C30.7678 37.03 30.8428 36.31 30.9028 36.17C30.9728 36.03 31.0478 35.96 31.1278 35.96C31.5078 35.96 31.8728 36.12 32.2228 36.44C32.5728 36.75 32.7478 37.035 32.7478 37.295C32.7478 37.915 32.5878 38.805 32.2678 39.965C32.9178 38.825 33.5078 37.895 34.0378 37.175C34.5778 36.445 35.0328 36.08 35.4028 36.08ZM39.5835 43.82C39.3535 43.82 39.0635 43.635 38.7135 43.265C38.3735 42.895 38.2035 42.6 38.2035 42.38C38.2035 42.32 38.3685 41.725 38.6985 40.595C39.0385 39.465 39.3735 38.105 39.7035 36.515C40.0435 34.925 40.2135 33.535 40.2135 32.345C40.2135 32.035 40.3535 31.88 40.6335 31.88C40.8735 31.88 41.1885 32.1 41.5785 32.54C41.9785 32.97 42.1785 33.375 42.1785 33.755C42.1785 34.305 41.9785 35.345 41.5785 36.875C41.1885 38.405 40.7985 39.61 40.4085 40.49C40.5385 40.32 40.7135 40.095 40.9335 39.815C41.1635 39.525 41.3485 39.29 41.4885 39.11C41.6285 38.93 41.7985 38.71 41.9985 38.45C42.2085 38.19 42.3835 37.98 42.5235 37.82C42.6635 37.65 42.8185 37.465 42.9885 37.265C43.1585 37.055 43.3035 36.89 43.4235 36.77C43.5535 36.64 43.6835 36.52 43.8135 36.41C44.0535 36.19 44.2385 36.08 44.3685 36.08C44.6185 36.08 44.8935 36.25 45.1935 36.59C45.4935 36.92 45.6435 37.21 45.6435 37.46C45.6435 37.56 45.4285 37.79 44.9985 38.15C44.5785 38.51 44.1535 38.91 43.7235 39.35C43.3035 39.79 43.0935 40.185 43.0935 40.535C43.0935 40.875 43.1935 41.21 43.3935 41.54C43.6035 41.86 43.8285 42.105 44.0685 42.275C44.3085 42.445 44.5285 42.62 44.7285 42.8C44.9385 42.97 45.0435 43.115 45.0435 43.235C45.0435 43.625 44.7785 43.82 44.2485 43.82C43.6185 43.82 42.7835 43.29 41.7435 42.23L41.3835 41.87C40.4835 43.17 39.8835 43.82 39.5835 43.82Z" fill="white"/>
<path d="M15.384 26.506C15.0173 26.506 14.6433 26.3887 14.262 26.154C13.8953 25.934 13.5213 25.5747 13.14 25.076C12.6707 24.4307 12.2747 23.8147 11.952 23.228C11.6293 22.6413 11.3653 22.128 11.16 21.688C10.9693 21.248 10.8227 20.9327 10.72 20.742C10.72 20.742 10.7567 20.698 10.83 20.61C10.9033 20.5073 10.9913 20.412 11.094 20.324C11.2113 20.2213 11.3067 20.17 11.38 20.17C12.0693 20.17 12.6853 20.1627 13.228 20.148C13.7853 20.1187 14.2767 20.0307 14.702 19.884C15.142 19.7227 15.5307 19.4513 15.868 19.07C16.2053 18.6887 16.4913 18.146 16.726 17.442C16.7993 17.266 16.8433 17.09 16.858 16.914C16.8873 16.7233 16.902 16.54 16.902 16.364C16.902 15.8653 16.7773 15.4253 16.528 15.044C16.2787 14.6627 15.9193 14.4427 15.45 14.384C15.3913 14.3693 15.3253 14.362 15.252 14.362C15.1787 14.362 15.1053 14.362 15.032 14.362C14.7533 14.362 14.4453 14.3987 14.108 14.472C13.7853 14.5453 13.5433 14.6847 13.382 14.89C13.0153 15.374 12.6633 15.924 12.326 16.54C11.9887 17.1413 11.666 17.7573 11.358 18.388C11.05 19.004 10.7567 19.5833 10.478 20.126C10.4047 20.2727 10.2653 20.5367 10.06 20.918C9.85467 21.2847 9.62733 21.71 9.378 22.194C9.12867 22.6633 8.894 23.1327 8.674 23.602C8.454 24.0713 8.278 24.4893 8.146 24.856C8.02867 25.2227 7.99933 25.472 8.058 25.604C8.07267 25.6187 8.08 25.6407 8.08 25.67C8.08 25.714 8.058 25.736 8.014 25.736C7.89667 25.736 7.77933 25.7067 7.662 25.648C7.54467 25.5893 7.40533 25.56 7.244 25.56C7.09733 25.56 6.95067 25.5967 6.804 25.67C6.65733 25.7287 6.46667 25.8387 6.232 26C5.99733 26.1613 5.73333 26.2933 5.44 26.396C5.41067 26.4107 5.36667 26.418 5.308 26.418C5.20533 26.418 5.12467 26.3887 5.066 26.33C5.00733 26.286 5.00733 26.2493 5.066 26.22C5.38867 26.1613 5.66733 26.044 5.902 25.868C6.13667 25.6773 6.32733 25.4427 6.474 25.164C6.782 24.6507 7.08267 24.1373 7.376 23.624C7.684 23.096 7.97733 22.568 8.256 22.04C8.59333 21.3947 8.938 20.7493 9.29 20.104C9.642 19.444 9.994 18.7913 10.346 18.146C10.6833 17.5447 10.984 16.9653 11.248 16.408C11.512 15.8507 11.71 15.4473 11.842 15.198C11.9447 15.0073 12.1207 14.8387 12.37 14.692C12.634 14.5307 12.8907 14.406 13.14 14.318C13.052 14.318 12.964 14.318 12.876 14.318C12.788 14.3033 12.6927 14.296 12.59 14.296C12.1353 14.296 11.6367 14.3253 11.094 14.384C10.566 14.428 10.0453 14.5013 9.532 14.604C9.03333 14.7067 8.59333 14.846 8.212 15.022C7.83067 15.198 7.574 15.4107 7.442 15.66C7.38333 15.792 7.332 15.924 7.288 16.056C7.244 16.188 7.222 16.32 7.222 16.452C7.222 16.7893 7.33933 17.0313 7.574 17.178C7.58867 17.178 7.596 17.1927 7.596 17.222C7.596 17.2513 7.56667 17.2807 7.508 17.31C7.464 17.3393 7.42733 17.3467 7.398 17.332C7.25133 17.2587 7.08267 17.0827 6.892 16.804C6.716 16.5107 6.59867 16.2687 6.54 16.078C6.496 15.902 6.474 15.7407 6.474 15.594C6.474 15.2127 6.59867 14.9193 6.848 14.714C7.09733 14.494 7.41267 14.34 7.794 14.252C8.17533 14.1493 8.564 14.0907 8.96 14.076C9.37067 14.0467 9.73 14.032 10.038 14.032C10.5073 14.032 11.0647 14.032 11.71 14.032C12.3553 14.0173 12.9493 14.01 13.492 14.01C13.624 14.01 13.7707 14.01 13.932 14.01C14.0933 13.9953 14.262 13.988 14.438 13.988C14.834 13.988 15.2447 14.01 15.67 14.054C16.0953 14.098 16.484 14.1933 16.836 14.34C17.188 14.4867 17.4593 14.714 17.65 15.022C17.8993 15.4327 18.024 15.902 18.024 16.43C18.024 17.2367 17.8113 17.9113 17.386 18.454C17.2393 18.6447 17.078 18.828 16.902 19.004C16.726 19.18 16.5207 19.3487 16.286 19.51C15.9047 19.774 15.45 20.0013 14.922 20.192C14.394 20.368 13.844 20.5 13.272 20.588C12.7147 20.676 12.2013 20.7347 11.732 20.764C11.9227 21.1747 12.2087 21.7247 12.59 22.414C12.986 23.1033 13.4627 23.7927 14.02 24.482C14.3133 24.8487 14.614 25.1053 14.922 25.252C15.23 25.3987 15.5307 25.472 15.824 25.472C16.2933 25.472 16.7333 25.3327 17.144 25.054C17.5693 24.7753 17.9507 24.4527 18.288 24.086C18.64 23.7047 18.9187 23.3747 19.124 23.096C19.168 23.0227 19.2047 22.986 19.234 22.986C19.278 22.986 19.3 23.03 19.3 23.118C19.3 23.2353 19.256 23.3527 19.168 23.47C18.4933 24.394 17.848 25.1347 17.232 25.692C16.616 26.2347 16 26.506 15.384 26.506ZM20.2364 26.176C19.635 26.176 19.217 26.0587 18.9824 25.824C18.7477 25.5893 18.6304 25.3033 18.6304 24.966C18.6304 24.5407 18.7404 24.086 18.9604 23.602C19.195 23.118 19.415 22.7073 19.6204 22.37C19.855 22.018 20.1704 21.6513 20.5664 21.27C20.9624 20.8887 21.395 20.566 21.8644 20.302C22.3337 20.038 22.7884 19.906 23.2284 19.906C23.6097 19.906 23.8737 20.0013 24.0204 20.192C24.167 20.368 24.2404 20.5807 24.2404 20.83C24.2404 21.2847 24.101 21.6587 23.8224 21.952C23.5584 22.2453 23.2284 22.4873 22.8324 22.678C22.4364 22.854 22.055 23.0007 21.6884 23.118C21.4684 23.1767 21.2117 23.2353 20.9184 23.294C20.625 23.3527 20.3464 23.382 20.0824 23.382C19.9797 23.646 19.899 23.9027 19.8404 24.152C19.7817 24.4013 19.7524 24.6287 19.7524 24.834C19.7524 25.0833 19.811 25.2887 19.9284 25.45C20.0604 25.6113 20.273 25.692 20.5664 25.692C20.6837 25.692 20.823 25.6773 20.9844 25.648C21.1457 25.6187 21.3217 25.5747 21.5124 25.516C21.9524 25.3693 22.385 25.1347 22.8104 24.812C23.2357 24.4893 23.6244 24.1447 23.9764 23.778C24.343 23.3967 24.6217 23.0813 24.8124 22.832C24.8564 22.876 24.8784 22.9273 24.8784 22.986C24.8784 23.0593 24.827 23.1767 24.7244 23.338C24.431 23.7487 24.0497 24.174 23.5804 24.614C23.111 25.054 22.5904 25.428 22.0184 25.736C21.4464 26.0293 20.8524 26.176 20.2364 26.176ZM20.2584 22.942C20.449 22.9567 20.6617 22.9567 20.8964 22.942C21.1457 22.9127 21.3877 22.8613 21.6224 22.788C22.2237 22.612 22.6564 22.3333 22.9204 21.952C23.199 21.556 23.3384 21.204 23.3384 20.896C23.3384 20.72 23.3017 20.5733 23.2284 20.456C23.155 20.3387 23.0377 20.28 22.8764 20.28C22.451 20.28 22.0697 20.4413 21.7324 20.764C21.395 21.072 21.1017 21.4313 20.8524 21.842C20.603 22.2527 20.405 22.6193 20.2584 22.942ZM29.0369 17.596C28.8316 17.596 28.6849 17.53 28.5969 17.398C28.5382 17.3247 28.5089 17.2293 28.5089 17.112C28.5089 16.8773 28.6189 16.6867 28.8389 16.54C29.0002 16.452 29.1469 16.408 29.2789 16.408C29.4989 16.408 29.6529 16.474 29.7409 16.606C29.7996 16.6793 29.8289 16.7747 29.8289 16.892C29.8289 17.1267 29.7116 17.3173 29.4769 17.464C29.3449 17.552 29.1982 17.596 29.0369 17.596ZM25.2089 26.066C25.0622 26.066 24.9376 26.0367 24.8349 25.978C24.7469 25.9193 24.7029 25.8093 24.7029 25.648C24.7029 25.4427 24.7542 25.2007 24.8569 24.922C24.9742 24.6433 25.0989 24.3647 25.2309 24.086C25.3776 23.8073 25.4876 23.58 25.5609 23.404C25.6636 23.1987 25.7882 22.9347 25.9349 22.612C26.0962 22.2747 26.2429 21.9593 26.3749 21.666C26.5216 21.358 26.6242 21.1453 26.6829 21.028C26.4776 21.248 26.2282 21.5267 25.9349 21.864C25.6562 22.1867 25.3922 22.502 25.1429 22.81C24.8936 23.118 24.7029 23.36 24.5709 23.536C24.5269 23.5947 24.4902 23.624 24.4609 23.624C24.4316 23.624 24.4169 23.5873 24.4169 23.514C24.4169 23.3967 24.4536 23.2867 24.5269 23.184C24.8056 22.832 25.1136 22.436 25.4509 21.996C25.8029 21.556 26.1182 21.1527 26.3969 20.786C26.6756 20.4047 26.8516 20.1553 26.9249 20.038C27.0862 20.0087 27.3209 19.9647 27.6289 19.906C27.9516 19.8473 28.1716 19.7667 28.2889 19.664C28.3329 19.62 28.3769 19.598 28.4209 19.598C28.4502 19.598 28.4649 19.6273 28.4649 19.686C28.4796 19.73 28.4649 19.7813 28.4209 19.84C28.3329 19.9427 28.1789 20.192 27.9589 20.588C27.7389 20.984 27.5042 21.424 27.2549 21.908C27.0202 22.3773 26.8002 22.8027 26.5949 23.184C26.3896 23.58 26.2136 23.9613 26.0669 24.328C25.9202 24.6947 25.8469 24.9587 25.8469 25.12C25.8469 25.3253 25.9496 25.428 26.1549 25.428C26.3456 25.428 26.5876 25.3107 26.8809 25.076C27.1889 24.8413 27.4969 24.5627 27.8049 24.24C28.1129 23.9027 28.3842 23.5947 28.6189 23.316C28.6922 23.228 28.7802 23.1253 28.8829 23.008C29.0002 22.876 29.0736 22.7953 29.1029 22.766C29.1322 22.7953 29.1469 22.8467 29.1469 22.92C29.1322 23.0227 29.0956 23.1253 29.0369 23.228C28.9782 23.316 28.9196 23.3967 28.8609 23.47C28.5529 23.8513 28.2156 24.2473 27.8489 24.658C27.4822 25.054 27.0789 25.3913 26.6389 25.67C26.1989 25.934 25.7222 26.066 25.2089 26.066ZM29.0453 26.044C28.8106 26.044 28.598 26 28.4073 25.912C28.2313 25.8093 28.1433 25.5967 28.1433 25.274C28.1433 24.7607 28.2753 24.2473 28.5393 23.734C28.8033 23.206 29.0746 22.744 29.3533 22.348C29.6026 22.0107 29.8813 21.6953 30.1893 21.402C30.512 21.094 30.8566 20.83 31.2233 20.61C31.458 20.4633 31.7733 20.3093 32.1693 20.148C32.58 19.972 32.9246 19.884 33.2033 19.884C33.438 19.884 33.6433 19.95 33.8193 20.082C33.9953 20.1993 34.0833 20.4193 34.0833 20.742C34.0833 21.2407 33.9513 21.754 33.6873 22.282C33.438 22.7953 33.174 23.25 32.8953 23.646C32.7633 23.822 32.6313 23.9907 32.4993 24.152C32.3673 24.2987 32.2206 24.4527 32.0593 24.614C32.602 24.614 33.1006 24.46 33.5553 24.152C34.01 23.8293 34.406 23.4407 34.7433 22.986L34.7873 22.942C34.8313 22.942 34.8533 22.986 34.8533 23.074C34.8533 23.1767 34.824 23.272 34.7653 23.36C34.472 23.7707 34.1053 24.1373 33.6653 24.46C33.2253 24.768 32.7266 24.922 32.1693 24.922C32.1106 24.922 32.052 24.922 31.9933 24.922C31.9346 24.922 31.876 24.9147 31.8173 24.9C30.996 25.6627 30.072 26.044 29.0453 26.044ZM29.6173 25.67C29.8226 25.67 30.0426 25.5967 30.2773 25.45C30.5266 25.3033 30.7173 25.164 30.8493 25.032C31.0986 24.7827 31.326 24.5187 31.5313 24.24C31.7366 23.9467 31.9273 23.6533 32.1033 23.36C32.3086 23.008 32.514 22.59 32.7193 22.106C32.9246 21.622 33.0273 21.1673 33.0273 20.742C33.0273 20.4047 32.91 20.236 32.6753 20.236C32.4846 20.236 32.25 20.3167 31.9713 20.478C31.7073 20.6393 31.5093 20.786 31.3773 20.918C30.8786 21.4313 30.4606 21.9887 30.1233 22.59C29.9326 22.9273 29.7273 23.3233 29.5073 23.778C29.2873 24.2327 29.1773 24.6507 29.1773 25.032C29.1773 25.0907 29.1773 25.1493 29.1773 25.208C29.192 25.252 29.2066 25.3033 29.2213 25.362C29.28 25.5673 29.412 25.67 29.6173 25.67ZM34.6476 26.33C34.5889 26.33 34.5889 26.264 34.6476 26.132C34.7209 26 34.7869 25.8533 34.8456 25.692C34.9189 25.5307 34.9922 25.3547 35.0656 25.164C35.2122 24.812 35.3736 24.416 35.5496 23.976C35.7256 23.536 35.8942 23.1107 36.0556 22.7C36.2169 22.2747 36.3562 21.9153 36.4736 21.622C36.6056 21.314 36.6936 21.116 36.7376 21.028C36.5322 21.248 36.2829 21.5267 35.9896 21.864C35.7109 22.1867 35.4469 22.502 35.1976 22.81C34.9482 23.118 34.7576 23.36 34.6256 23.536C34.5816 23.5947 34.5449 23.624 34.5156 23.624C34.4862 23.624 34.4716 23.5873 34.4716 23.514C34.4716 23.3967 34.5082 23.2867 34.5816 23.184C34.8602 22.832 35.1682 22.436 35.5056 21.996C35.8576 21.556 36.1729 21.1527 36.4516 20.786C36.7302 20.4047 36.9062 20.1553 36.9796 20.038C37.1409 20.0087 37.3756 19.9647 37.6836 19.906C38.0062 19.8473 38.2262 19.7667 38.3436 19.664C38.3876 19.62 38.4316 19.598 38.4756 19.598C38.5049 19.598 38.5196 19.6273 38.5196 19.686C38.5342 19.73 38.5196 19.7813 38.4756 19.84C38.3876 19.9427 38.2336 20.1847 38.0136 20.566C37.8082 20.9327 37.5809 21.3433 37.3316 21.798C37.0969 22.2527 36.8769 22.6633 36.6716 23.03C36.8476 22.7953 37.0382 22.568 37.2436 22.348C37.4489 22.128 37.6469 21.9153 37.8376 21.71C38.0136 21.534 38.2556 21.314 38.5636 21.05C38.8716 20.786 39.1942 20.544 39.5316 20.324C39.8689 20.104 40.1622 19.9793 40.4116 19.95C40.4702 19.9353 40.5216 19.928 40.5656 19.928C40.6242 19.928 40.6682 19.928 40.6976 19.928C41.0202 19.928 41.1816 20.0453 41.1816 20.28C41.1816 20.456 41.0862 20.6907 40.8956 20.984C40.7929 21.1453 40.6316 21.4167 40.4116 21.798C40.2062 22.1647 39.9936 22.568 39.7736 23.008C39.5682 23.4333 39.3849 23.8367 39.2236 24.218C39.0769 24.5847 39.0036 24.856 39.0036 25.032C39.0036 25.2373 39.1062 25.34 39.3116 25.34C39.5609 25.34 39.8322 25.2153 40.1256 24.966C40.4336 24.7167 40.7636 24.4013 41.1156 24.02C41.4676 23.624 41.8196 23.206 42.1716 22.766C42.2009 22.7953 42.2156 22.8467 42.2156 22.92C42.2156 23.0227 42.1789 23.1253 42.1056 23.228C42.0469 23.316 41.9882 23.3967 41.9296 23.47C41.7829 23.6607 41.5849 23.9027 41.3356 24.196C41.1009 24.4747 40.8589 24.7533 40.6096 25.032C40.3602 25.296 40.1329 25.5087 39.9276 25.67C39.7809 25.7727 39.5902 25.8827 39.3556 26C39.1209 26.1173 38.8862 26.176 38.6516 26.176C38.3876 26.176 38.2042 26.11 38.1016 25.978C37.9989 25.8313 37.9476 25.6553 37.9476 25.45C37.9476 25.2153 37.9916 24.966 38.0796 24.702C38.1676 24.438 38.2629 24.1887 38.3656 23.954C38.4829 23.7047 38.5709 23.5213 38.6296 23.404C38.8936 22.8907 39.1356 22.4067 39.3556 21.952C39.5756 21.4973 39.7296 21.1747 39.8176 20.984C39.8616 20.896 39.8836 20.8227 39.8836 20.764C39.8836 20.6613 39.8029 20.654 39.6416 20.742C39.4802 20.83 39.2822 20.962 39.0476 21.138C38.8276 21.314 38.6222 21.49 38.4316 21.666C38.2409 21.8273 38.1162 21.9373 38.0576 21.996C37.5149 22.568 37.0382 23.206 36.6276 23.91C36.2316 24.5993 35.8942 25.3107 35.6156 26.044C35.4249 26.0587 35.2342 26.11 35.0436 26.198C34.8529 26.286 34.7209 26.33 34.6476 26.33ZM45.0993 15.924C45.0113 15.9827 44.9306 16.0267 44.8573 16.056C44.7986 16.0853 44.7693 16.1 44.7693 16.1L44.8133 15.924C44.828 15.88 44.8353 15.8433 44.8353 15.814C44.85 15.7847 44.9013 15.7407 44.9893 15.682C45.2386 15.4767 45.4513 15.2347 45.6273 14.956C45.818 14.6773 45.9426 14.384 46.0013 14.076C46.0306 13.8853 45.994 13.7167 45.8913 13.57C45.7886 13.4233 45.642 13.3353 45.4513 13.306L45.5393 13.064C45.6126 13.0347 45.7153 12.9907 45.8473 12.932C45.9793 12.8587 46.0746 12.8 46.1333 12.756C46.192 12.712 46.2506 12.6607 46.3093 12.602C46.368 12.5287 46.4193 12.4993 46.4633 12.514C46.7713 12.558 46.9253 12.7487 46.9253 13.086C46.9253 13.1447 46.918 13.2033 46.9033 13.262C46.9033 13.306 46.896 13.3647 46.8813 13.438C46.764 13.966 46.5366 14.4427 46.1993 14.868C45.8766 15.2787 45.51 15.6307 45.0993 15.924ZM46.7926 26.352C46.5286 26.352 46.2499 26.3153 45.9566 26.242C45.6633 26.1687 45.3993 26.0513 45.1646 25.89C44.9446 25.714 44.7979 25.4793 44.7246 25.186C44.7099 25.142 44.7026 25.076 44.7026 24.988C44.7026 24.7827 44.7466 24.5553 44.8346 24.306C44.9373 24.0567 45.0619 23.8807 45.2086 23.778C45.2673 23.7487 45.3113 23.7487 45.3406 23.778C45.3846 23.8073 45.3919 23.8367 45.3626 23.866C45.3479 23.91 45.3259 23.9687 45.2966 24.042C45.2673 24.1007 45.2453 24.1667 45.2306 24.24C45.1866 24.6213 45.2673 24.9587 45.4726 25.252C45.5606 25.3693 45.6633 25.4793 45.7806 25.582C45.9126 25.6847 46.0373 25.7727 46.1546 25.846C46.2573 25.9047 46.3819 25.9487 46.5286 25.978C46.6753 25.9927 46.8219 26 46.9686 26C47.2033 26 47.4306 25.9707 47.6506 25.912C47.8706 25.8533 48.0319 25.758 48.1346 25.626C48.3253 25.3913 48.4206 25.1273 48.4206 24.834C48.4206 24.614 48.3619 24.3793 48.2446 24.13C48.1273 23.8807 47.9439 23.6167 47.6946 23.338C47.5333 23.162 47.3793 22.9713 47.2326 22.766C47.0859 22.5607 46.9906 22.3407 46.9466 22.106C46.9319 22.062 46.9173 22.018 46.9026 21.974C46.9026 21.93 46.9026 21.886 46.9026 21.842C46.7119 22.1207 46.5139 22.3847 46.3086 22.634C46.1179 22.8687 45.9493 23.074 45.8026 23.25C45.7439 23.338 45.6926 23.382 45.6486 23.382C45.6193 23.382 45.6046 23.3527 45.6046 23.294C45.6046 23.162 45.6633 23.0227 45.7806 22.876C45.8979 22.744 46.0299 22.5827 46.1766 22.392C46.3233 22.1867 46.4406 22.0253 46.5286 21.908C46.7779 21.5413 46.9613 21.2553 47.0786 21.05C47.2106 20.83 47.3499 20.632 47.4966 20.456C47.6579 20.2653 47.8559 20.1113 48.0906 19.994C48.3399 19.8767 48.5966 19.818 48.8606 19.818C49.1686 19.818 49.4473 19.8693 49.6966 19.972C49.9606 20.06 50.0999 20.2947 50.1146 20.676C50.1146 20.852 50.0779 21.0353 50.0046 21.226C49.9459 21.402 49.8799 21.5707 49.8066 21.732C49.7626 21.82 49.6966 21.886 49.6086 21.93C49.5353 21.9593 49.4986 21.9447 49.4986 21.886C49.4986 21.8273 49.5059 21.7613 49.5206 21.688C49.5353 21.6147 49.5426 21.5487 49.5426 21.49C49.5426 21.2407 49.4986 21.0207 49.4106 20.83C49.3373 20.6247 49.2273 20.478 49.0806 20.39C48.9339 20.2873 48.7799 20.236 48.6186 20.236C48.3839 20.236 48.1566 20.3313 47.9366 20.522C47.7166 20.698 47.6066 20.9327 47.6066 21.226C47.6066 21.2553 47.6066 21.292 47.6066 21.336C47.6066 21.38 47.6139 21.4167 47.6286 21.446C47.6873 21.6807 47.8633 21.9447 48.1566 22.238C48.4499 22.5313 48.6773 22.788 48.8386 23.008C49.1173 23.3893 49.2566 23.778 49.2566 24.174C49.2566 24.57 49.1393 24.9367 48.9046 25.274C48.6846 25.5967 48.3839 25.8533 48.0026 26.044C47.6359 26.2493 47.2326 26.352 46.7926 26.352Z" fill="white"/>
</svg>
