<svg width="56" height="56" viewBox="0 0 56 56" fill="none" xmlns="http://www.w3.org/2000/svg">
<g clip-path="url(#clip0_29_2)">
<path d="M56 0H0V56H56V0Z" fill="#1D70B8"/>
<path d="M31.52 7C24.52 7 19.88 8 17.6 10C15.52 11.8 14.48 14.58 14.48 18.34C14.48 24.18 17.52 28.16 23.6 30.28L14.96 43.3L9.8 43.84C9.8 45.56 10.26 47.28 11.18 49H19.88L31.64 31.06H33.56L33.74 43.3L29.36 43.78C29.36 45.42 29.82 47.16 30.74 49H45.56L46.1 45.7C43.7 44.74 42.02 44.16 41.06 43.96C41.14 39.04 41.24 33.1 41.36 26.14C41.48 19.18 41.56 14.52 41.6 12.16L46.58 10.66C46.54 9.74 46.36 8.52 46.04 7H31.52ZM26.78 13.42C28.02 13.14 29.68 13 31.76 13H33.44C33.52 18.52 33.56 22.66 33.56 25.42L30.62 25.36C28.26 25.32 26.4 24.84 25.04 23.92C23.64 22.96 22.94 21.12 22.94 18.4C22.94 15.68 24.22 14.02 26.78 13.42Z" fill="white"/>
</g>
<defs>
<clipPath id="clip0_29_2">
<rect width="56" height="56" fill="white"/>
</clipPath>
</defs>
</svg>
